<svg width="35" height="35" viewBox="0 0 35 35" fill="none" xmlns="http://www.w3.org/2000/svg">
<path d="M12.8333 30.625H7.29167C6.48958 30.625 5.80295 30.3394 5.23177 29.7682C4.66059 29.197 4.375 28.5104 4.375 27.7083V22.1667C5.54167 22.1667 6.5625 21.796 7.4375 21.0547C8.3125 20.3134 8.75 19.3715 8.75 18.2292C8.75 17.0868 8.3125 16.145 7.4375 15.4036C6.5625 14.6623 5.54167 14.2917 4.375 14.2917V8.75C4.375 7.94792 4.66059 7.26128 5.23177 6.6901C5.80295 6.11892 6.48958 5.83333 7.29167 5.83333H13.125C13.125 4.8125 13.4774 3.94965 14.1823 3.24479C14.8872 2.53993 15.75 2.1875 16.7708 2.1875C17.7917 2.1875 18.6545 2.53993 19.3594 3.24479C20.0642 3.94965 20.4167 4.8125 20.4167 5.83333H26.25C27.0521 5.83333 27.7387 6.11892 28.3099 6.6901C28.8811 7.26128 29.1667 7.94792 29.1667 8.75V14.5833C30.1875 14.5833 31.0503 14.9358 31.7552 15.6406C32.4601 16.3455 32.8125 17.2083 32.8125 18.2292C32.8125 19.25 32.4601 20.1128 31.7552 20.8177C31.0503 21.5226 30.1875 21.875 29.1667 21.875V27.7083C29.1667 28.5104 28.8811 29.197 28.3099 29.7682C27.7387 30.3394 27.0521 30.625 26.25 30.625H20.7083C20.7083 29.4097 20.3255 28.3767 19.5599 27.526C18.7943 26.6753 17.8646 26.25 16.7708 26.25C15.6771 26.25 14.7474 26.6753 13.9818 27.526C13.2161 28.3767 12.8333 29.4097 12.8333 30.625ZM7.29167 27.7083H10.3906C10.974 26.1042 11.9097 24.974 13.1979 24.3177C14.4861 23.6615 15.6771 23.3333 16.7708 23.3333C17.8646 23.3333 19.0556 23.6615 20.3437 24.3177C21.6319 24.974 22.5677 26.1042 23.151 27.7083H26.25V18.9583H29.1667C29.3611 18.9583 29.5312 18.8854 29.6771 18.7396C29.8229 18.5937 29.8958 18.4236 29.8958 18.2292C29.8958 18.0347 29.8229 17.8646 29.6771 17.7187C29.5312 17.5729 29.3611 17.5 29.1667 17.5H26.25V8.75H17.5V5.83333C17.5 5.63889 17.4271 5.46875 17.2812 5.32292C17.1354 5.17708 16.9653 5.10417 16.7708 5.10417C16.5764 5.10417 16.4062 5.17708 16.2604 5.32292C16.1146 5.46875 16.0417 5.63889 16.0417 5.83333V8.75H7.29167V11.9583C8.60417 12.4444 9.66146 13.2587 10.4635 14.401C11.2656 15.5434 11.6667 16.8194 11.6667 18.2292C11.6667 19.6146 11.2656 20.8785 10.4635 22.0208C9.66146 23.1632 8.60417 23.9896 7.29167 24.5V27.7083Z" fill="#F25260"/>
</svg>
