<svg width="35" height="35" viewBox="0 0 35 35" fill="none" xmlns="http://www.w3.org/2000/svg">
<path d="M8.53133 24.9378C9.77091 23.9899 11.1563 23.2425 12.6876 22.6956C14.2188 22.1488 15.823 21.8753 17.5001 21.8753C19.1772 21.8753 20.7813 22.1488 22.3126 22.6956C23.8438 23.2425 25.2292 23.9899 26.4688 24.9378C27.3195 23.9413 27.9819 22.8111 28.4558 21.5472C28.9298 20.2833 29.1667 18.9344 29.1667 17.5003C29.1667 14.2677 28.0305 11.5151 25.7579 9.24251C23.4853 6.96994 20.7327 5.83366 17.5001 5.83366C14.2674 5.83366 11.5148 6.96994 9.24227 9.24251C6.9697 11.5151 5.83341 14.2677 5.83341 17.5003C5.83341 18.9344 6.07039 20.2833 6.54435 21.5472C7.01831 22.8111 7.68064 23.9413 8.53133 24.9378ZM17.5001 18.9587C16.0661 18.9587 14.8569 18.4665 13.8725 17.4821C12.8881 16.4977 12.3959 15.2885 12.3959 13.8545C12.3959 12.4205 12.8881 11.2113 13.8725 10.2269C14.8569 9.24251 16.0661 8.75033 17.5001 8.75033C18.9341 8.75033 20.1433 9.24251 21.1277 10.2269C22.1121 11.2113 22.6042 12.4205 22.6042 13.8545C22.6042 15.2885 22.1121 16.4977 21.1277 17.4821C20.1433 18.4665 18.9341 18.9587 17.5001 18.9587ZM17.5001 32.0837C15.4827 32.0837 13.5869 31.7008 11.8126 30.9352C10.0383 30.1696 8.49487 29.1305 7.18237 27.818C5.86987 26.5055 4.83081 24.9621 4.06519 23.1878C3.29956 21.4135 2.91675 19.5177 2.91675 17.5003C2.91675 15.483 3.29956 13.5871 4.06519 11.8128C4.83081 10.0385 5.86987 8.49512 7.18237 7.18262C8.49487 5.87012 10.0383 4.83105 11.8126 4.06543C13.5869 3.2998 15.4827 2.91699 17.5001 2.91699C19.5174 2.91699 21.4133 3.2998 23.1876 4.06543C24.9619 4.83105 26.5053 5.87012 27.8178 7.18262C29.1303 8.49512 30.1694 10.0385 30.935 11.8128C31.7006 13.5871 32.0834 15.483 32.0834 17.5003C32.0834 19.5177 31.7006 21.4135 30.935 23.1878C30.1694 24.9621 29.1303 26.5055 27.8178 27.818C26.5053 29.1305 24.9619 30.1696 23.1876 30.9352C21.4133 31.7008 19.5174 32.0837 17.5001 32.0837ZM17.5001 29.167C18.7883 29.167 20.0036 28.9786 21.1459 28.6019C22.2883 28.2252 23.3334 27.6844 24.2813 26.9795C23.3334 26.2746 22.2883 25.7338 21.1459 25.3571C20.0036 24.9804 18.7883 24.792 17.5001 24.792C16.2119 24.792 14.9966 24.9804 13.8542 25.3571C12.7119 25.7338 11.6667 26.2746 10.7188 26.9795C11.6667 27.6844 12.7119 28.2252 13.8542 28.6019C14.9966 28.9786 16.2119 29.167 17.5001 29.167ZM17.5001 16.042C18.132 16.042 18.6546 15.8354 19.0678 15.4222C19.481 15.009 19.6876 14.4864 19.6876 13.8545C19.6876 13.2225 19.481 12.7 19.0678 12.2868C18.6546 11.8736 18.132 11.667 17.5001 11.667C16.8681 11.667 16.3456 11.8736 15.9324 12.2868C15.5192 12.7 15.3126 13.2225 15.3126 13.8545C15.3126 14.4864 15.5192 15.009 15.9324 15.4222C16.3456 15.8354 16.8681 16.042 17.5001 16.042Z" fill="black"/>
</svg>
