<svg width="48" height="48" viewBox="0 0 48 48" fill="none" xmlns="http://www.w3.org/2000/svg">
<path fill-rule="evenodd" clip-rule="evenodd" d="M21.47 0.847446C20.7175 1.30152 18.8997 4.14631 17.4304 7.16918C14.8137 12.5531 14.6797 12.6822 10.8252 13.539C8.66138 14.0204 6.03773 14.4135 4.99415 14.4135C2.46262 14.4135 0 17.0962 0 19.8536C0 21.511 1.16822 23.2832 4.54204 26.7433L9.08407 31.4011L8.02656 37.1469C6.67254 44.5043 6.67796 44.599 8.51583 46.5035C10.6974 48.7642 13.1941 48.5107 19.18 45.4205L24.3862 42.7337L29.0312 45.3972C34.4396 48.4987 37.2916 48.7739 39.57 46.4129C40.8822 45.053 41.1059 44.1425 40.701 41.7999C40.4239 40.1954 40.0058 37.0771 39.772 34.8709C39.347 30.8628 39.3501 30.8564 43.6723 26.4745C48.0634 22.0245 48.8337 19.9362 47.2304 16.8331C46.8084 16.0148 45.5016 15.154 44.3272 14.9197C43.1528 14.6847 40.18 14.0862 37.7205 13.5896L33.2489 12.6863L30.5649 7.16356C27.277 0.396603 24.9243 -1.23679 21.47 0.847446Z" fill="#F9373F"/>
</svg>
