<svg width="48" height="48" viewBox="0 0 48 48" fill="none" xmlns="http://www.w3.org/2000/svg">
<path fill-rule="evenodd" clip-rule="evenodd" d="M21.47 0.847452C20.7175 1.30153 18.8997 4.14631 17.4304 7.16918C14.8137 12.5531 14.6797 12.6822 10.8252 13.5391C8.66138 14.0204 6.03773 14.4135 4.99415 14.4135C2.46262 14.4135 0 17.0962 0 19.8536C0 21.511 1.16822 23.2832 4.54204 26.7433L9.08407 31.4012L8.02656 37.1469C6.67254 44.5043 6.67796 44.599 8.51583 46.5035C10.6974 48.7643 13.1941 48.5107 19.18 45.4205L24.3862 42.7337L29.0312 45.3972C34.4396 48.4987 37.2916 48.7739 39.57 46.4129C40.8822 45.053 41.1059 44.1425 40.701 41.7999C40.4239 40.1954 40.0058 37.0771 39.772 34.8709C39.347 30.8628 39.3501 30.8564 43.6723 26.4745C48.0634 22.0245 48.8337 19.9362 47.2304 16.8331C46.8084 16.0148 45.5016 15.154 44.3272 14.9197C43.1528 14.6847 40.18 14.0862 37.7205 13.5896L33.2489 12.6863L30.5649 7.16357C27.277 0.396587 24.9243 -1.23679 21.47 0.847452ZM27.8026 10.2643L30.8498 16.5443L37.489 17.5671C41.14 18.1303 44.1275 18.9743 44.1275 19.4428C44.1275 19.9105 42.0767 22.5066 39.5708 25.211L35.0148 30.1288L36.0467 36.1096C36.6142 39.3996 37.0965 42.5428 37.119 43.094C37.1886 44.81 34.8406 44.2115 29.2534 41.0883L23.8722 38.0799L18.5428 41.0883C12.9905 44.2227 10.8097 44.7931 10.8794 43.094C10.9018 42.5428 11.3965 39.3835 11.9787 36.0743L13.0377 30.0574L8.45467 25.2222C5.93321 22.5628 3.87083 19.9827 3.87083 19.4885C3.87083 18.9719 6.67874 18.1777 10.4853 17.6177L17.0998 16.6446L20.1709 10.314C21.8601 6.83304 23.5827 3.98425 23.9992 3.98425C24.4157 3.98425 26.1273 6.80978 27.8026 10.2643Z" fill="white"/>
</svg>
