<svg width="40" height="40" viewBox="0 0 40 40" fill="none" xmlns="http://www.w3.org/2000/svg">
<path d="M20 34.972L18.0556 33.2221C15.1618 30.5809 12.7693 28.3026 10.8782 26.387C8.98722 24.4715 7.48153 22.7568 6.36117 21.2429C5.24078 19.729 4.45605 18.3517 4.007 17.111C3.55792 15.8702 3.33337 14.6109 3.33337 13.3332C3.33337 10.7933 4.18522 8.6722 5.88892 6.96992C7.59264 5.26764 9.70375 4.4165 12.2222 4.4165C13.7593 4.4165 15.1945 4.76835 16.5278 5.47205C17.8612 6.17577 19.0186 7.18503 20 8.49984C21.0926 7.12948 22.2917 6.10632 23.5973 5.43038C24.9028 4.75446 26.2963 4.4165 27.7778 4.4165C30.2963 4.4165 32.4074 5.26764 34.1112 6.96992C35.8149 8.6722 36.6667 10.7933 36.6667 13.3332C36.6667 14.6109 36.4422 15.8702 35.9931 17.111C35.544 18.3517 34.7593 19.729 33.6389 21.2429C32.5186 22.7568 31.0129 24.4715 29.1218 26.387C27.2308 28.3026 24.8383 30.5809 21.9445 33.2221L20 34.972ZM20 31.2776C22.7637 28.7592 25.0379 26.5995 26.8228 24.7985C28.6076 22.9976 30.0232 21.4235 31.0695 20.0762C32.1158 18.729 32.8473 17.5287 33.264 16.4753C33.6806 15.4218 33.889 14.3758 33.889 13.3372C33.889 11.5567 33.3149 10.0878 32.1667 8.93038C31.0186 7.77296 29.5577 7.19425 27.7841 7.19425C26.3947 7.19425 25.1088 7.60862 23.9265 8.43734C22.744 9.26603 21.8334 10.398 21.1945 11.8332H18.7778C18.1574 10.4165 17.256 9.28919 16.0736 8.45121C14.8912 7.61324 13.6054 7.19425 12.216 7.19425C10.4424 7.19425 8.98151 7.77296 7.83337 8.93038C6.68521 10.0878 6.11112 11.5583 6.11112 13.3419C6.11112 14.3824 6.31946 15.4327 6.73612 16.4929C7.15279 17.5531 7.88428 18.7614 8.93058 20.1179C9.97689 21.4744 11.3982 23.0485 13.1945 24.8401C14.9908 26.6318 17.2593 28.7776 20 31.2776Z" fill="white"/>
</svg>
