<svg width="5" height="7" viewBox="0 0 5 7" fill="none" xmlns="http://www.w3.org/2000/svg">
<path d="M1.5799 0.169597C3.09788 -0.389036 4.65164 0.482195 4.9638 2.05177C5.06195 2.54528 4.94865 3.00323 4.76637 3.45376C4.45567 4.2217 4.03766 4.93236 3.59567 5.62955C3.40313 5.93327 3.20678 6.23506 2.9999 6.5291C2.74395 6.89289 2.25535 6.89668 2.00357 6.5309C1.38861 5.63751 0.802852 4.72556 0.354681 3.73384C0.176741 3.3401 0.00741162 2.93894 0.000312065 2.49797C-0.0158988 1.49107 0.600627 0.584891 1.5799 0.169597ZM1.50674 1.87242C1.35053 2.13377 1.29429 2.41217 1.34807 2.71485C1.45589 3.32175 2.05208 3.74301 2.68122 3.65153C3.29118 3.56283 3.74304 2.97178 3.66258 2.36788C3.59555 1.8648 3.25575 1.47255 2.78638 1.35643C2.29817 1.23565 1.82751 1.42058 1.50674 1.87242Z" fill="white"/>
</svg>
