<svg width="17" height="17" viewBox="0 0 17 17" fill="none" xmlns="http://www.w3.org/2000/svg">
<path d="M6.36486 3.55629L6.1191 3.99718C5.84914 4.48146 5.71416 4.7236 5.5037 4.88336C5.29325 5.04312 5.03115 5.10243 4.50697 5.22103L4.50691 5.22104L4.02965 5.32903L4.02963 5.32903C2.18489 5.74643 1.26252 5.95513 1.04307 6.66081C0.823617 7.36646 1.45244 8.10183 2.71007 9.57244L3.03544 9.95291C3.39282 10.3708 3.57151 10.5798 3.65189 10.8383C3.73229 11.0968 3.70527 11.3756 3.65123 11.9332L3.60205 12.4408C3.41191 14.403 3.31684 15.384 3.89136 15.8202C4.46585 16.2563 5.3294 15.8587 7.05645 15.0636M6.36486 3.55629L6.36493 3.55617M6.36486 3.55629C6.36489 3.55625 6.36491 3.55621 6.36493 3.55617M10.8809 3.99718L10.6351 3.55628C9.68514 1.85209 9.21017 1 8.49999 1C7.78983 1 7.31487 1.85206 6.36493 3.55617M10.8809 3.99718L10.8814 3.99812M10.8809 3.99718C10.881 3.99749 10.8812 3.99781 10.8814 3.99812M12.9704 5.32903L12.4931 5.22104C11.9688 5.10243 11.7068 5.04313 11.4963 4.88336C11.2859 4.7237 11.151 4.48177 10.8814 3.99812M12.9704 5.32903L12.9705 5.32907M12.9704 5.32903C12.9704 5.32904 12.9705 5.32905 12.9705 5.32907M13.9646 9.95291L14.2899 9.57244C15.5476 8.10183 16.1764 7.36646 15.9569 6.66081C15.7375 5.95514 14.8151 5.74644 12.9705 5.32907M13.9646 9.95291L13.9643 9.95325M13.9646 9.95291C13.9645 9.95303 13.9644 9.95314 13.9643 9.95325M13.3979 12.4408L13.3487 11.9332L13.3487 11.9332C13.2947 11.3756 13.2677 11.0968 13.3481 10.8383C13.4284 10.5798 13.6071 10.3709 13.9643 9.95325M13.3979 12.4408L13.398 12.4412M13.3979 12.4408C13.3979 12.4409 13.398 12.441 13.398 12.4412M9.94322 15.0634L9.49637 14.8576M9.94322 15.0634L9.94351 15.0636M9.94322 15.0634C9.94331 15.0635 9.94341 15.0635 9.94351 15.0636M9.49637 14.8576L9.4959 14.8574M9.49637 14.8576C9.49621 14.8575 9.49605 14.8575 9.4959 14.8574M7.50362 14.8576L7.05677 15.0634M7.50362 14.8576L7.50409 14.8574M7.50362 14.8576C7.50378 14.8575 7.50393 14.8575 7.50409 14.8574M7.05677 15.0634L7.05645 15.0636M7.05677 15.0634C7.05666 15.0635 7.05656 15.0635 7.05645 15.0636M13.398 12.4412C13.5881 14.4031 13.6831 15.3841 13.1087 15.8202C12.5341 16.2563 11.6706 15.8587 9.94351 15.0636M9.4959 14.8574C9.00541 14.6316 8.76008 14.5186 8.49999 14.5186C8.2399 14.5186 7.99457 14.6316 7.50409 14.8574" stroke="black"/>
</svg>
