<svg width="39" height="41" viewBox="0 0 39 41" fill="none" xmlns="http://www.w3.org/2000/svg">
<g filter="url(#filter0_d_745_66)">
<path d="M10.5313 24.9378C11.7709 23.9899 13.1563 23.2425 14.6876 22.6956C16.2188 22.1488 17.823 21.8753 19.5001 21.8753C21.1772 21.8753 22.7813 22.1488 24.3126 22.6956C25.8438 23.2425 27.2292 23.9899 28.4688 24.9378C29.3195 23.9413 29.9819 22.8111 30.4558 21.5472C30.9298 20.2833 31.1667 18.9344 31.1667 17.5003C31.1667 14.2677 30.0305 11.5151 27.7579 9.24251C25.4853 6.96994 22.7327 5.83366 19.5001 5.83366C16.2674 5.83366 13.5148 6.96994 11.2423 9.24251C8.9697 11.5151 7.83341 14.2677 7.83341 17.5003C7.83341 18.9344 8.07039 20.2833 8.54435 21.5472C9.01831 22.8111 9.68064 23.9413 10.5313 24.9378ZM19.5001 18.9587C18.0661 18.9587 16.8569 18.4665 15.8725 17.4821C14.8881 16.4977 14.3959 15.2885 14.3959 13.8545C14.3959 12.4205 14.8881 11.2113 15.8725 10.2269C16.8569 9.24251 18.0661 8.75033 19.5001 8.75033C20.9341 8.75033 22.1433 9.24251 23.1277 10.2269C24.1121 11.2113 24.6042 12.4205 24.6042 13.8545C24.6042 15.2885 24.1121 16.4977 23.1277 17.4821C22.1433 18.4665 20.9341 18.9587 19.5001 18.9587ZM19.5001 32.0837C17.4827 32.0837 15.5869 31.7008 13.8126 30.9352C12.0383 30.1696 10.4949 29.1305 9.18237 27.818C7.86987 26.5055 6.83081 24.9621 6.06519 23.1878C5.29956 21.4135 4.91675 19.5177 4.91675 17.5003C4.91675 15.483 5.29956 13.5871 6.06519 11.8128C6.83081 10.0385 7.86987 8.49512 9.18237 7.18262C10.4949 5.87012 12.0383 4.83105 13.8126 4.06543C15.5869 3.2998 17.4827 2.91699 19.5001 2.91699C21.5174 2.91699 23.4133 3.2998 25.1876 4.06543C26.9619 4.83105 28.5053 5.87012 29.8178 7.18262C31.1303 8.49512 32.1694 10.0385 32.935 11.8128C33.7006 13.5871 34.0834 15.483 34.0834 17.5003C34.0834 19.5177 33.7006 21.4135 32.935 23.1878C32.1694 24.9621 31.1303 26.5055 29.8178 27.818C28.5053 29.1305 26.9619 30.1696 25.1876 30.9352C23.4133 31.7008 21.5174 32.0837 19.5001 32.0837ZM19.5001 29.167C20.7883 29.167 22.0036 28.9786 23.1459 28.6019C24.2883 28.2252 25.3334 27.6844 26.2813 26.9795C25.3334 26.2746 24.2883 25.7338 23.1459 25.3571C22.0036 24.9804 20.7883 24.792 19.5001 24.792C18.2119 24.792 16.9966 24.9804 15.8542 25.3571C14.7119 25.7338 13.6667 26.2746 12.7188 26.9795C13.6667 27.6844 14.7119 28.2252 15.8542 28.6019C16.9966 28.9786 18.2119 29.167 19.5001 29.167ZM19.5001 16.042C20.132 16.042 20.6546 15.8354 21.0678 15.4222C21.481 15.009 21.6876 14.4864 21.6876 13.8545C21.6876 13.2225 21.481 12.7 21.0678 12.2868C20.6546 11.8736 20.132 11.667 19.5001 11.667C18.8681 11.667 18.3456 11.8736 17.9324 12.2868C17.5192 12.7 17.3126 13.2225 17.3126 13.8545C17.3126 14.4864 17.5192 15.009 17.9324 15.4222C18.3456 15.8354 18.8681 16.042 19.5001 16.042Z" fill="black"/>
</g>
<defs>
<filter id="filter0_d_745_66" x="-2" y="0" width="43" height="43" filterUnits="userSpaceOnUse" color-interpolation-filters="sRGB">
<feFlood flood-opacity="0" result="BackgroundImageFix"/>
<feColorMatrix in="SourceAlpha" type="matrix" values="0 0 0 0 0 0 0 0 0 0 0 0 0 0 0 0 0 0 127 0" result="hardAlpha"/>
<feOffset dy="4"/>
<feGaussianBlur stdDeviation="2"/>
<feComposite in2="hardAlpha" operator="out"/>
<feColorMatrix type="matrix" values="0 0 0 0 0 0 0 0 0 0 0 0 0 0 0 0 0 0 0.25 0"/>
<feBlend mode="normal" in2="BackgroundImageFix" result="effect1_dropShadow_745_66"/>
<feBlend mode="normal" in="SourceGraphic" in2="effect1_dropShadow_745_66" result="shape"/>
</filter>
</defs>
</svg>
