<svg width="35" height="35" viewBox="0 0 35 35" fill="none" xmlns="http://www.w3.org/2000/svg">
<path d="M15.9688 22.6774L24.2084 14.4378L22.1302 12.3597L15.9688 18.5212L12.9063 15.4587L10.8282 17.5368L15.9688 22.6774ZM17.5 32.0837C14.1216 31.233 11.3325 29.2946 9.13285 26.2686C6.9332 23.2425 5.83337 19.8823 5.83337 16.1878V7.29199L17.5 2.91699L29.1667 7.29199V16.1878C29.1667 19.8823 28.0669 23.2425 25.8672 26.2686C23.6676 29.2946 20.8785 31.233 17.5 32.0837ZM17.5 29.0212C20.0278 28.2191 22.1181 26.6149 23.7709 24.2087C25.4237 21.8024 26.25 19.1288 26.25 16.1878V9.2972L17.5 6.01595L8.75004 9.2972V16.1878C8.75004 19.1288 9.57643 21.8024 11.2292 24.2087C12.882 26.6149 14.9723 28.2191 17.5 29.0212Z" fill="#41D992"/>
</svg>
