<svg width="50" height="50" viewBox="0 0 50 50" fill="none" xmlns="http://www.w3.org/2000/svg">
<path fill-rule="evenodd" clip-rule="evenodd" d="M14.5675 0.115724C12.2637 0.639837 10.5451 2.73326 10.536 5.02643L10.5337 5.63205L8.35924 5.66166C6.36306 5.68883 6.1634 5.7073 5.92426 5.88673C5.34112 6.32425 5.30809 6.47417 5.27418 8.83253L5.2432 10.9965L4.69133 11.0655C1.82772 11.4233 -0.179601 13.7716 0.0127268 16.539C0.107132 17.8979 0.597919 18.9726 1.55399 19.9139C2.42836 20.7748 3.78364 21.3765 4.84848 21.3765H5.24301L5.27408 23.551C5.30838 25.9404 5.35236 26.1325 5.97176 26.5947C6.22917 26.7867 6.38974 26.8024 8.39051 26.8301L10.5337 26.8598L10.5349 27.5142C10.5371 28.8141 11.0072 29.9392 11.9776 30.968C12.7742 31.8124 13.826 32.3686 14.907 32.5172C17.8958 32.9277 20.6973 30.5352 20.6973 27.572V26.8493H22.1144H23.5314V35.4264C23.5314 43.6064 23.5398 44.0193 23.7135 44.3441C24.0778 45.0254 24.2636 45.0696 26.9943 45.1243L29.4311 45.1732L29.5503 45.8813C30.0135 48.6328 32.6433 50.4405 35.3565 49.8724C37.4386 49.4364 38.8219 48.029 39.2364 45.9245L39.3941 45.1243L41.4554 45.1241C43.7667 45.124 44.0048 45.0699 44.4187 44.4502C44.6319 44.1311 44.6406 44.0374 44.6406 42.0512V39.9842L45.5327 39.8717C48.5356 39.4926 50.5456 36.6832 49.8684 33.8114C49.3534 31.6269 47.5834 30.0992 45.348 29.91L44.6385 29.85L44.6639 25.6376L44.6894 21.4254L45.3835 21.3561C47.8983 21.1052 49.8034 19.1096 49.982 16.539C50.1691 13.8454 48.2026 11.4598 45.4901 11.0899L44.6504 10.9754L44.621 8.70753C44.5917 6.44153 44.5915 6.43938 44.3474 6.17825C43.874 5.67202 43.7238 5.64241 41.6294 5.64241H39.6834L39.6151 4.88873C39.3919 2.42522 37.7783 0.591364 35.4053 0.104192C32.4286 -0.506898 29.402 1.97489 29.3963 5.03161L29.3951 5.64241H25.0462H20.6973V5.0277C20.6973 1.91117 17.5967 -0.57345 14.5675 0.115724ZM16.1529 3.01393C16.6913 3.14948 17.3462 3.70242 17.5812 4.21989C17.8485 4.80831 17.821 5.59521 17.5097 6.27549C17.1174 7.13217 17.2723 7.78127 17.9984 8.32386C18.2525 8.51374 18.4197 8.52713 20.8997 8.55567L23.5314 8.58586V11.1796C23.5314 14.031 23.5678 14.2417 24.1289 14.6413C24.448 14.8685 24.9728 14.9784 25.3211 14.8909C25.4512 14.8583 25.7776 14.6803 26.0465 14.4953C26.6372 14.089 27.2199 13.9181 27.7108 14.0072C28.833 14.2108 29.5905 15.0933 29.5905 16.197C29.5905 17.7957 27.9871 18.888 26.5786 18.2489C26.3464 18.1434 26.0445 17.9692 25.9076 17.8616C25.1614 17.2746 24.1139 17.5109 23.6687 18.3665C23.5608 18.5742 23.5314 19.194 23.5314 21.2739V23.9175H20.9157C17.9197 23.9175 17.8017 23.9437 17.4015 24.7005C17.1092 25.2532 17.1212 25.51 17.4723 26.214C18.2859 27.8453 17.3193 29.6166 15.6155 29.6166C13.9193 29.6166 12.9751 27.9034 13.7586 26.2473C13.9198 25.9065 14.0518 25.5297 14.0518 25.4097C14.052 25.0173 13.7426 24.4079 13.4299 24.1849C13.1373 23.9762 13.0128 23.9641 10.6803 23.9175L8.23708 23.8686L8.18822 21.4208C8.1459 19.2998 8.11629 18.9378 7.96696 18.7102C7.56159 18.0922 6.86626 17.921 6.05903 18.2404C5.05166 18.6388 4.12911 18.4316 3.467 17.6581C2.8477 16.9345 2.74304 16.0836 3.16845 15.23C3.47981 14.6051 4.00568 14.1979 4.70169 14.0427C5.14557 13.9437 5.282 13.955 5.8152 14.135C6.8905 14.498 7.56042 14.362 8.00273 13.6911C8.17063 13.4365 8.18695 13.1979 8.18753 10.9992L8.18822 8.58684L10.5756 8.55606C12.8083 8.52733 12.9805 8.51228 13.2326 8.32386C13.9589 7.78118 14.1039 7.16491 13.7199 6.25272C13.253 5.14341 13.4457 4.15236 14.2645 3.45146C14.8358 2.96253 15.4154 2.82825 16.1529 3.01393ZM35.1206 3.0497C35.6483 3.20636 36.1904 3.69255 36.4861 4.27422C36.744 4.78143 36.7244 5.68082 36.4437 6.21646C35.9927 7.07705 36.2278 7.95464 37.0164 8.35435C37.4266 8.56231 37.5653 8.57423 39.5718 8.57423H41.6935L41.7256 10.9441C41.7562 13.2078 41.7676 13.3299 41.9791 13.6701C42.2296 14.0732 42.7093 14.3402 43.1826 14.3402C43.3588 14.3402 43.7789 14.2469 44.1164 14.133C44.8889 13.872 45.4322 13.9377 46.0794 14.3702C47.2019 15.1204 47.4077 16.6299 46.5277 17.6581C45.8586 18.4398 45.0039 18.6277 43.9065 18.234C43.4686 18.0771 43.2212 18.0417 42.9361 18.0951C42.454 18.1855 41.9608 18.6648 41.8171 19.1823C41.7541 19.4091 41.7096 20.4662 41.7093 21.743L41.7088 23.9175L39.4366 23.9178C37.3417 23.9181 37.1396 23.9334 36.8459 24.1124C36.4277 24.3674 36.1391 24.8551 36.1387 25.308C36.1385 25.5085 36.2329 25.9606 36.3486 26.3129C36.5363 26.8849 36.5462 27.0099 36.4409 27.4806C36.2139 28.4947 35.496 29.1641 34.5283 29.264C32.8097 29.4414 31.675 27.7664 32.3386 26.032C32.5688 25.4306 32.5431 25.0409 32.2404 24.5449C31.886 23.9639 31.64 23.9175 28.9161 23.9175H26.4633V22.6207V21.3239L27.1817 21.3601C28.6206 21.4328 29.9664 20.9079 31.0003 19.8708C32.6019 18.2643 32.9791 15.9363 31.9737 13.8643C31.6095 13.1138 30.4992 12.0129 29.6997 11.6095C28.8792 11.1954 27.8614 10.9825 27.0741 11.0602L26.4633 11.1206V9.85319V8.58577L29.1438 8.55557C31.6733 8.52703 31.8396 8.51403 32.094 8.32386C32.8281 7.77541 32.9733 7.14214 32.5707 6.24529C31.9658 4.89733 32.5137 3.527 33.8474 3.05185C34.3434 2.87516 34.5317 2.87477 35.1206 3.0497ZM29.1996 27.3174C29.1996 28.4648 29.7944 29.7981 30.7129 30.7095C33.8301 33.8027 38.8998 31.9085 39.4101 27.4601L39.4802 26.8493H40.5876H41.695L41.7262 29.5612C41.7565 32.1816 41.7651 32.2852 41.9791 32.6293C42.3909 33.2915 43.1956 33.4728 44.032 33.0917C44.6849 32.7943 45.151 32.755 45.6714 32.9538C46.2968 33.1927 46.6331 33.5095 46.8866 34.0987C47.6491 35.8712 45.7643 37.6179 44.0542 36.7234C43.2394 36.2972 42.3757 36.4983 41.9565 37.2118C41.7743 37.5221 41.7551 37.745 41.7268 39.8715L41.6959 42.1925H39.5587C37.2938 42.1925 37.0487 42.2311 36.6009 42.6583C36.2001 43.0406 36.0932 43.5511 36.2796 44.1922C36.5387 45.0833 36.4294 45.7248 35.9115 46.353C34.8809 47.6033 32.9307 47.1512 32.4665 45.5544C32.3155 45.0351 32.3161 44.9596 32.4747 44.3734C32.6674 43.6614 32.6266 43.1998 32.3348 42.79C31.9374 42.2318 31.716 42.1925 28.965 42.1925H26.4633V34.5209V26.8493H27.8314H29.1996V27.3174Z" fill="black"/>
<path d="M16.1529 3.01393C16.6913 3.14948 17.3462 3.70242 17.5812 4.21989C17.8485 4.80831 17.821 5.59521 17.5097 6.27549C17.1174 7.13217 17.2723 7.78127 17.9984 8.32386C18.2525 8.51374 18.4197 8.52713 20.8997 8.55567L23.5314 8.58586V11.1796C23.5314 14.031 23.5678 14.2417 24.1289 14.6413C24.448 14.8685 24.9728 14.9784 25.3211 14.8909C25.4512 14.8583 25.7776 14.6803 26.0465 14.4953C26.6372 14.089 27.2199 13.9181 27.7108 14.0072C28.833 14.2108 29.5905 15.0933 29.5905 16.197C29.5905 17.7957 27.9871 18.888 26.5786 18.2489C26.3464 18.1434 26.0445 17.9692 25.9076 17.8616C25.1614 17.2746 24.1139 17.5109 23.6687 18.3665C23.5608 18.5742 23.5314 19.194 23.5314 21.2739V23.9175H20.9157C17.9197 23.9175 17.8017 23.9437 17.4015 24.7005C17.1092 25.2532 17.1212 25.51 17.4723 26.214C18.2859 27.8453 17.3193 29.6166 15.6155 29.6166C13.9193 29.6166 12.9751 27.9034 13.7586 26.2473C13.9198 25.9065 14.0518 25.5297 14.0518 25.4097C14.052 25.0173 13.7426 24.4079 13.4299 24.1849C13.1373 23.9762 13.0128 23.9641 10.6803 23.9175L8.23708 23.8686L8.18822 21.4208C8.1459 19.2998 8.11629 18.9378 7.96696 18.7102C7.56159 18.0922 6.86626 17.921 6.05903 18.2404C5.05166 18.6388 4.12911 18.4316 3.467 17.6581C2.8477 16.9345 2.74304 16.0836 3.16845 15.23C3.47981 14.6051 4.00568 14.1979 4.70169 14.0427C5.14557 13.9437 5.282 13.955 5.8152 14.135C6.8905 14.498 7.56042 14.362 8.00273 13.6911C8.17063 13.4365 8.18695 13.1979 8.18753 10.9992L8.18822 8.58684L10.5756 8.55606C12.8083 8.52733 12.9805 8.51228 13.2326 8.32386C13.9589 7.78118 14.1039 7.16491 13.7199 6.25272C13.253 5.14341 13.4457 4.15236 14.2645 3.45146C14.8358 2.96253 15.4154 2.82825 16.1529 3.01393Z" fill="#FF7D7D"/>
<path d="M35.1206 3.0497C35.6483 3.20636 36.1904 3.69255 36.4861 4.27422C36.744 4.78143 36.7244 5.68082 36.4437 6.21646C35.9927 7.07705 36.2278 7.95464 37.0164 8.35435C37.4266 8.56231 37.5653 8.57423 39.5718 8.57423H41.6935L41.7256 10.9441C41.7562 13.2078 41.7676 13.3299 41.9791 13.6701C42.2296 14.0732 42.7093 14.3402 43.1826 14.3402C43.3588 14.3402 43.7789 14.2469 44.1164 14.133C44.8889 13.872 45.4322 13.9377 46.0794 14.3702C47.2019 15.1204 47.4077 16.6299 46.5277 17.6581C45.8586 18.4398 45.0039 18.6277 43.9065 18.234C43.4686 18.0771 43.2212 18.0417 42.9361 18.0951C42.454 18.1855 41.9608 18.6648 41.8171 19.1823C41.7541 19.4091 41.7096 20.4662 41.7093 21.743L41.7088 23.9175L39.4366 23.9178C37.3417 23.9181 37.1396 23.9334 36.8459 24.1124C36.4277 24.3674 36.1391 24.8551 36.1387 25.308C36.1385 25.5085 36.2329 25.9606 36.3486 26.3129C36.5363 26.8849 36.5462 27.0099 36.4409 27.4806C36.2139 28.4947 35.496 29.1641 34.5283 29.264C32.8097 29.4414 31.675 27.7664 32.3386 26.032C32.5688 25.4306 32.5431 25.0409 32.2404 24.5449C31.886 23.9639 31.64 23.9175 28.9161 23.9175H26.4633V22.6207V21.3239L27.1817 21.3601C28.6206 21.4328 29.9664 20.9079 31.0003 19.8708C32.6019 18.2643 32.9791 15.9363 31.9737 13.8643C31.6095 13.1138 30.4992 12.0129 29.6997 11.6095C28.8792 11.1954 27.8614 10.9825 27.0741 11.0602L26.4633 11.1206V9.85319V8.58577L29.1438 8.55557C31.6733 8.52703 31.8396 8.51403 32.094 8.32386C32.8281 7.77541 32.9733 7.14214 32.5707 6.24529C31.9658 4.89733 32.5137 3.527 33.8474 3.05185C34.3434 2.87516 34.5317 2.87477 35.1206 3.0497Z" fill="#2DF97F"/>
<path d="M29.1996 27.3174C29.1996 28.4648 29.7944 29.7981 30.7129 30.7095C33.8301 33.8027 38.8998 31.9085 39.4101 27.4601L39.4802 26.8493H40.5876H41.695L41.7262 29.5612C41.7565 32.1816 41.7651 32.2852 41.9791 32.6293C42.3909 33.2915 43.1956 33.4728 44.032 33.0917C44.6849 32.7943 45.151 32.755 45.6714 32.9538C46.2968 33.1927 46.6331 33.5095 46.8866 34.0987C47.6491 35.8712 45.7643 37.6179 44.0542 36.7234C43.2394 36.2972 42.3757 36.4983 41.9565 37.2118C41.7743 37.5221 41.7551 37.745 41.7268 39.8715L41.6959 42.1925H39.5587C37.2938 42.1925 37.0487 42.2311 36.6009 42.6583C36.2001 43.0406 36.0932 43.5511 36.2796 44.1922C36.5387 45.0833 36.4294 45.7248 35.9115 46.353C34.8809 47.6033 32.9307 47.1512 32.4665 45.5544C32.3155 45.0351 32.3161 44.9596 32.4747 44.3734C32.6674 43.6614 32.6266 43.1998 32.3348 42.79C31.9374 42.2318 31.716 42.1925 28.965 42.1925H26.4633V34.5209V26.8493H27.8314H29.1996V27.3174Z" fill="#EEFA6B"/>
</svg>
