<svg width="17" height="17" viewBox="0 0 17 17" fill="none" xmlns="http://www.w3.org/2000/svg">
<path fill-rule="evenodd" clip-rule="evenodd" d="M7.60395 0.300137C7.33744 0.460954 6.69365 1.46849 6.17325 2.53908C5.24651 4.44588 5.19908 4.49163 3.83392 4.79508C3.06757 4.96556 2.13836 5.10478 1.76876 5.10478C0.872179 5.10478 0 6.05492 0 7.03147C0 7.61848 0.413744 8.24613 1.60864 9.47158L3.21728 11.1212L2.84274 13.1562C2.36319 15.7619 2.36511 15.7955 3.01602 16.47C3.78867 17.2707 4.67292 17.1809 6.79291 16.0864L8.6368 15.1349L10.2819 16.0782C12.1974 17.1766 13.2074 17.2741 14.0144 16.4379C14.4791 15.9563 14.5583 15.6338 14.415 14.8041C14.3168 14.2359 14.1687 13.1315 14.0859 12.3501C13.9354 10.9306 13.9365 10.9283 15.4673 9.3764C17.0224 7.80033 17.2953 7.06073 16.7274 5.96172C16.578 5.67191 16.1152 5.36703 15.6992 5.28407C15.2833 5.20082 14.2304 4.98886 13.3593 4.81298L11.7757 4.49305L10.8251 2.5371C9.6606 0.140463 8.82735 -0.438031 7.60395 0.300137Z" fill="#FFE600"/>
</svg>
