<svg width="17" height="17" viewBox="0 0 17 17" fill="none" xmlns="http://www.w3.org/2000/svg">
<path fill-rule="evenodd" clip-rule="evenodd" d="M7.60394 0.300139C7.33744 0.460957 6.69365 1.46848 6.17325 2.53909C5.24651 4.44588 5.19908 4.49163 3.83391 4.79508C3.06757 4.96556 2.13836 5.10478 1.76876 5.10478C0.872179 5.10478 0 6.05491 0 7.03147C0 7.61848 0.413744 8.24613 1.60864 9.47158L3.21727 11.1212L2.84274 13.1562C2.36319 15.7619 2.36511 15.7955 3.01602 16.47C3.78867 17.2707 4.67292 17.1809 6.79291 16.0864L8.6368 15.1349L10.2819 16.0782C12.1973 17.1766 13.2074 17.2741 14.0144 16.4379C14.4791 15.9563 14.5583 15.6338 14.4149 14.8041C14.3168 14.2359 14.1687 13.1315 14.0859 12.3501C13.9354 10.9306 13.9365 10.9283 15.4673 9.3764C17.0224 7.80033 17.2953 7.06074 16.7274 5.96172C16.578 5.67191 16.1152 5.36703 15.6992 5.28407C15.2833 5.20082 14.2304 4.98886 13.3593 4.81298L11.7757 4.49305L10.8251 2.5371C9.6606 0.140458 8.82735 -0.438031 7.60394 0.300139ZM9.84677 3.63526L10.926 5.85943L13.2774 6.2217C14.5704 6.42116 15.6285 6.72006 15.6285 6.886C15.6285 7.05164 14.9022 7.97109 14.0146 8.92889L12.4011 10.6706L12.7666 12.7888C12.9675 13.954 13.1383 15.0672 13.1463 15.2624C13.171 15.8702 12.3394 15.6582 10.3606 14.5521L8.45474 13.4866L6.56725 14.5521C4.60081 15.6622 3.82843 15.8642 3.85311 15.2624C3.86106 15.0672 4.03626 13.9483 4.24245 12.7763L4.61753 10.6453L2.99436 8.93287C2.10135 7.99098 1.37092 7.07721 1.37092 6.90219C1.37092 6.71921 2.36539 6.43792 3.71355 6.2396L6.05618 5.89495L7.14386 3.65288C7.74213 2.42004 8.35219 1.41109 8.4997 1.41109C8.64721 1.41109 9.25343 2.4118 9.84677 3.63526Z" fill="white"/>
</svg>
